<?xml version="1.0" encoding="UTF-8"?>
<svg version="1.1" xmlns="http://www.w3.org/2000/svg" width="50" height="50">
<path d="M0 0 C2.6328125 0.5546875 2.6328125 0.5546875 3.6328125 1.5546875 C4.08281147 7.17967465 3.05170325 10.61611888 0.6328125 15.5546875 C5.5828125 15.5546875 10.5328125 15.5546875 15.6328125 15.5546875 C19.58346683 22.79755377 19.64767455 30.27776886 17.7578125 38.2421875 C16.6328125 40.5546875 16.6328125 40.5546875 14.6328125 41.5546875 C10.36850802 41.87920349 6.09543053 41.87920301 1.8203125 41.9296875 C0.63115234 41.96707031 -0.55800781 42.00445312 -1.78320312 42.04296875 C-10.43595519 42.13041936 -10.43595519 42.13041936 -14.62109375 39.54296875 C-17.98443647 33.78691241 -17.93512172 27.55818958 -17.03710938 21.09326172 C-15.76613823 16.27709628 -13.13288251 12.43079814 -10.2421875 8.4296875 C-9.67387207 7.64182861 -9.10555664 6.85396973 -8.52001953 6.04223633 C-4.31088202 0.7101453 -4.31088202 0.7101453 0 0 Z M-1.3671875 3.5546875 C-2.76542771 5.00197991 -2.76542771 5.00197991 -4.15234375 6.9140625 C-4.68279297 7.61789063 -5.21324219 8.32171875 -5.75976562 9.046875 C-6.31083984 9.79195312 -6.86191406 10.53703125 -7.4296875 11.3046875 C-7.98462891 12.03429688 -8.53957031 12.76390625 -9.11132812 13.515625 C-9.64048828 14.22460938 -10.16964844 14.93359375 -10.71484375 15.6640625 C-11.19961182 16.31342773 -11.68437988 16.96279297 -12.18383789 17.63183594 C-14.95643844 22.13709733 -14.88079237 27.4186388 -14.3671875 32.5546875 C-12.7109338 36.44688369 -11.22842418 37.97935506 -7.3671875 39.5546875 C-5.18140728 39.84246696 -5.18140728 39.84246696 -2.890625 39.78515625 C-2.0553125 39.78322266 -1.22 39.78128906 -0.359375 39.77929688 C0.50429688 39.76705078 1.36796875 39.75480469 2.2578125 39.7421875 C3.12921875 39.74154297 4.000625 39.74089844 4.8984375 39.74023438 C9.41830097 39.8573214 9.41830097 39.8573214 13.6328125 38.5546875 C15.24319159 33.36568821 15.85822925 28.96468943 15.6328125 23.5546875 C14.9728125 23.5546875 14.3128125 23.5546875 13.6328125 23.5546875 C13.6328125 21.9046875 13.6328125 20.2546875 13.6328125 18.5546875 C8.0228125 18.2246875 2.4128125 17.8946875 -3.3671875 17.5546875 C-2.32552083 15.08072917 -1.28385417 12.60677083 -0.2421875 10.1328125 C0.84707133 7.37714979 0.84707133 7.37714979 0.6328125 3.5546875 C-0.0271875 3.5546875 -0.6871875 3.5546875 -1.3671875 3.5546875 Z " fill="#000000" transform="translate(24.3671875,3.4453125)"/>
</svg>
